# xmcd
#
# Track frame offsets: 
#        150
#        17471
#        38294
#        57565
#        75593
#        91113
#        111018
#        134822
#        159081
#        181877
#        199536
#        215079
#        230205
#        245394
#        269024
#        286158
#        304575
#
# Disc length: 4331 seconds
#
# Revision: 0
# Processed by: cddbd v1.5.2PL0 Copyright (c) Steve Scherf et al.
# Submitted via: ExactAudioCopyFreeDBPlugin 1.0
#
DISCID=e110e911
DTITLE=群星 - DTS51极品好歌
DYEAR=2008
DGENRE=DTS
TTITLE0=红雪莲
TTITLE1=船歌
TTITLE2=春光美
TTITLE3=我的根在草原
TTITLE4=太湖美
TTITLE5=雏菊
TTITLE6=乌兰巴托之夜
TTITLE7=故乡的云
TTITLE8=歌唱二小放牛郎
TTITLE9=爱的天堂
TTITLE10=深深的海洋
TTITLE11=白兰鸽
TTITLE12=忽然之间
TTITLE13=锡林郭勒美
TTITLE14=一江水
TTITLE15=今宵多珍重
TTITLE16=你悄悄说吧
EXTD=
EXTT0=
EXTT1=
EXTT2=
EXTT3=
EXTT4=
EXTT5=
EXTT6=
EXTT7=
EXTT8=
EXTT9=
EXTT10=
EXTT11=
EXTT12=
EXTT13=
EXTT14=
EXTT15=
EXTT16=
PLAYORDER=
